<svg width="34" height="34" viewBox="0 0 34 34" fill="none" xmlns="http://www.w3.org/2000/svg">
<path d="M18.8924 0C21.8637 0.00592648 22.5047 0.0310892 24.0261 0.100773C25.8121 0.182576 27.0323 0.462069 28.0958 0.877899C29.2001 1.30736 30.134 1.87998 31.0679 2.8139C31.995 3.741 32.5677 4.68173 32.9971 5.77925C33.4062 6.84268 33.6925 8.06291 33.7743 9.84893C33.85 11.5027 33.8731 12.1161 33.8762 15.8128V17.7098C33.8731 21.4064 33.85 22.0199 33.7743 23.6736C33.6925 25.4596 33.413 26.6798 32.9971 27.7433C32.5677 28.8476 31.9951 29.7815 31.0611 30.7154C30.1272 31.6494 29.1933 32.222 28.089 32.6514C27.0255 33.0605 25.8053 33.3468 24.0193 33.4286C22.2333 33.5104 21.6606 33.5308 17.107 33.5308L16.6171 33.5307C12.5092 33.5292 11.9145 33.5073 10.1946 33.4286C8.40859 33.3468 7.18836 33.0673 6.12493 32.6514C5.02059 32.222 4.08668 31.6494 3.15277 30.7154C2.21885 29.7815 1.64623 28.8476 1.21677 27.7433C0.807753 26.6798 0.521437 25.4596 0.439634 23.6736C0.36995 22.1522 0.344794 21.5112 0.338867 18.5399V14.9826C0.344794 12.0113 0.36995 11.3704 0.439634 9.84893C0.521437 8.06291 0.800936 6.84268 1.21677 5.77925C1.64623 4.68173 2.21885 3.741 3.15277 2.8139C4.08668 1.87998 5.02059 1.30736 6.12493 0.877899C7.18836 0.462069 8.40859 0.175759 10.2014 0.100773C11.7229 0.0310892 12.3638 0.00592648 15.3351 0H18.8924ZM17.5886 3.01846H16.6253C12.5872 3.01951 12.0311 3.03507 10.331 3.11384C8.6949 3.18883 7.8087 3.4615 7.21563 3.69328C6.43169 4.00004 5.8727 4.36133 5.28645 4.94759C4.7002 5.53384 4.3389 6.09282 4.03214 6.87677C3.80036 7.46984 3.52769 8.35603 3.45271 9.99209C3.37772 11.7577 3.35727 12.2894 3.35727 16.7681C3.35727 21.2468 3.3709 21.7785 3.45271 23.5441C3.52769 25.1801 3.80036 26.0663 4.03214 26.6594C4.3389 27.4433 4.7002 28.0023 5.28645 28.5886C5.8727 29.1748 6.43169 29.5361 7.21563 29.8429C7.8087 30.0747 8.6949 30.3473 10.331 30.4223C12.0965 30.4973 12.6283 30.5178 17.107 30.5178L17.5886 30.5177C21.6267 30.5167 22.1828 30.5011 23.8829 30.4223C25.519 30.3473 26.4052 30.0747 26.9983 29.8429C27.7822 29.5361 28.3412 29.1748 28.9274 28.5886C29.5137 28.0023 29.875 27.4433 30.1818 26.6594C30.4135 26.0663 30.6862 25.1801 30.7612 23.5441C30.8362 21.7785 30.8566 21.2468 30.8566 16.7681L30.8566 16.2864C30.8555 12.2483 30.84 11.6923 30.7612 9.99209C30.6862 8.35603 30.4135 7.46984 30.1818 6.87677C29.875 6.09282 29.5137 5.53384 28.9274 4.94759C28.3412 4.36133 27.7822 4.00004 26.9983 3.69328C26.4052 3.4615 25.519 3.18883 23.8829 3.11384C22.1174 3.03204 21.5857 3.01841 17.107 3.01841L17.5886 3.01846ZM17.107 8.15834C21.8651 8.15834 25.7167 12.0167 25.7167 16.7681C25.7167 21.5195 21.8583 25.3778 17.107 25.3778C12.3556 25.3778 8.49721 21.5263 8.49721 16.7681C8.49721 12.0099 12.3488 8.15834 17.107 8.15834ZM17.107 11.1782C14.0189 11.1782 11.5171 13.68 11.5171 16.7681C11.5171 19.8561 14.0189 22.3579 17.107 22.3579C20.195 22.3579 22.6968 19.8561 22.6968 16.7681C22.6968 13.68 20.195 11.1782 17.107 11.1782ZM26.0644 5.80652C27.175 5.80652 28.0753 6.70686 28.0753 7.8175C28.0753 8.92813 27.175 9.82848 26.0644 9.82848C24.9537 9.82848 24.0534 8.92813 24.0534 7.8175C24.0534 6.70686 24.9537 5.80652 26.0644 5.80652Z" fill="#C2E6E9"/>
</svg>
