<svg width="33" height="27" viewBox="0 0 33 27" fill="none" xmlns="http://www.w3.org/2000/svg">
<path d="M10.5419 26.901C22.7183 26.901 29.3771 16.8131 29.3771 8.06577C29.3771 7.77916 29.3712 7.49401 29.358 7.20997C30.6505 6.27564 31.7742 5.10938 32.6605 3.78238C31.4744 4.30936 30.198 4.66423 28.8589 4.82424C30.2256 4.00477 31.2751 2.70787 31.7702 1.16215C30.4909 1.92069 29.0744 2.4719 27.5668 2.76915C26.3583 1.48252 24.6379 0.677734 22.7344 0.677734C19.0782 0.677734 16.1134 3.64256 16.1134 7.29695C16.1134 7.81659 16.1717 8.32155 16.2847 8.80633C10.7834 8.53 5.90473 5.89545 2.64008 1.89023C2.07089 2.86824 1.74318 4.00514 1.74318 5.21727C1.74318 7.51383 2.91201 9.54139 4.68929 10.7278C3.6034 10.6944 2.5832 10.3957 1.69107 9.89956C1.6896 9.92709 1.6896 9.95498 1.6896 9.98397C1.6896 13.1903 3.97185 15.867 7.00053 16.4736C6.44456 16.6252 5.85959 16.7067 5.25554 16.7067C4.82911 16.7067 4.41443 16.6641 4.01111 16.5874C4.8537 19.2172 7.29778 21.1313 10.1955 21.1853C7.92936 22.9611 5.07499 24.0191 1.97364 24.0191C1.43969 24.0191 0.912706 23.9886 0.394531 23.9274C3.32413 25.8048 6.80273 26.901 10.5419 26.901Z" fill="#C2E6E9"/>
</svg>
