<svg width="35" height="25" viewBox="0 0 35 25" fill="none" xmlns="http://www.w3.org/2000/svg">
<path d="M17.7433 0.903891C20.0428 0.916735 28.2556 1.00664 30.5552 1.636C32.0238 2.03137 33.1816 3.18924 33.577 4.65775C34.2064 6.95734 34.2756 11.394 34.2826 12.6147L34.2821 13.1376C34.2739 14.1662 34.2024 18.8022 33.577 21.1785C33.1816 22.647 32.0238 23.8049 30.5552 24.2002C27.9819 24.8774 18.0036 24.9051 17.1933 24.9062H17.0888C16.2806 24.905 6.32713 24.8763 3.7267 24.172C2.25819 23.7766 1.10033 22.6188 0.70496 21.1502C0.079633 18.799 0.0081679 14.1437 0 13.1104V12.6986C0.0081679 11.67 0.079633 7.03399 0.70496 4.65775C1.10033 3.18924 2.28643 2.00313 3.7267 1.60776C6.02629 1.00261 14.2391 0.916159 16.5387 0.903809L17.7433 0.903891ZM13.7239 7.76421V18.0438L22.6479 12.904L13.7239 7.76421Z" fill="#C2E6E9"/>
</svg>
